<svg id="Layer_2" data-name="Layer 2" xmlns="http://www.w3.org/2000/svg" width="141.098" height="41.528" viewBox="0 0 141.098 41.528">
  <g id="App_Store" data-name="App Store" transform="translate(0 0)">
    <rect id="Rectangle_3" data-name="Rectangle 3" width="140.048" height="40.484" rx="7.38" transform="translate(0.525 0.525)"/>
    <path id="Path_39" data-name="Path 39" d="M135.788,41.528H5.31A5.317,5.317,0,0,1,0,36.218V5.31A5.317,5.317,0,0,1,5.31,0H135.788a5.317,5.317,0,0,1,5.31,5.31V36.218A5.317,5.317,0,0,1,135.788,41.528ZM5.31,1.05A4.266,4.266,0,0,0,1.05,5.31V36.218a4.266,4.266,0,0,0,4.26,4.26H135.788a4.266,4.266,0,0,0,4.26-4.26V5.31a4.266,4.266,0,0,0-4.26-4.26Z" transform="translate(0 0)" fill="none"/>
    <path id="Path_40" data-name="Path 40" d="M71.427,15.566l-.59,1.945h-1.3l2.185-6.821h1.589l2.23,6.814H74.208l-.648-1.945Zm1.945-.94-.538-1.679c-.13-.415-.24-.882-.344-1.3h0c-.1.4-.2.869-.324,1.3l-.525,1.679Z" transform="translate(-24.452 -3.759)" fill="#fff"/>
    <path id="Path_41" data-name="Path 41" d="M80.939,13.59l.8,2.5c.143.434.24.83.337,1.232h0c.091-.4.2-.791.337-1.232l.791-2.5h1.3l-1.88,4.928H81.425L79.59,13.59Z" transform="translate(-27.986 -4.779)" fill="#fff"/>
    <path id="Path_42" data-name="Path 42" d="M92.627,17.277a6.646,6.646,0,0,0,.084,1.187H91.589l-.091-.545h0a1.8,1.8,0,0,1-1.459.648A1.465,1.465,0,0,1,88.49,17.1c0-1.232,1.1-1.874,2.924-1.861v-.078c0-.324-.13-.862-1-.862a2.594,2.594,0,0,0-1.3.363l-.292-.81A3.553,3.553,0,0,1,90.6,13.42a1.848,1.848,0,0,1,2.036,2.088Zm-1.212-1.225c-.882,0-1.718.175-1.718.921a.648.648,0,0,0,.707.713,1.024,1.024,0,0,0,.979-.648.837.837,0,0,0,0-.272Z" transform="translate(-31.116 -4.718)" fill="#fff"/>
    <path id="Path_43" data-name="Path 43" d="M98.188,11.8a.648.648,0,1,1,.5-.168A.648.648,0,0,1,98.188,11.8Zm-.648,5.634V12.5h1.245v4.928Z" transform="translate(-34.298 -3.694)" fill="#fff"/>
    <path id="Path_44" data-name="Path 44" d="M102.27,10.1h1.245v7.2H102.27Z" transform="translate(-35.961 -3.551)" fill="#fff"/>
    <path id="Path_45" data-name="Path 45" d="M110.627,17.277a6.7,6.7,0,0,0,.084,1.187h-1.122l-.091-.545h0a1.8,1.8,0,0,1-1.459.648,1.465,1.465,0,0,1-1.55-1.465c0-1.232,1.1-1.874,2.924-1.861v-.078c0-.324-.13-.862-1-.862a2.593,2.593,0,0,0-1.3.363l-.3-.81a3.553,3.553,0,0,1,1.783-.434,1.851,1.851,0,0,1,2.036,2.088Zm-1.212-1.225c-.882,0-1.718.175-1.718.921a.648.648,0,0,0,.7.713,1.024,1.024,0,0,0,.979-.648.837.837,0,0,0,0-.272Z" transform="translate(-37.445 -4.718)" fill="#fff"/>
    <path id="Path_46" data-name="Path 46" d="M115.58,10.1h1.245v2.944h0a1.783,1.783,0,0,1,1.621-.791c1.206,0,2.062,1,2.055,2.5a2.36,2.36,0,0,1-2.237,2.652,1.7,1.7,0,0,1-1.556-.849h0l-.058.739h-1.063c0-.337.039-.882.039-1.375Zm1.245,5.187a1.367,1.367,0,0,0,0,.292,1.135,1.135,0,0,0,1.1.869c.778,0,1.258-.648,1.258-1.621,0-.869-.415-1.582-1.245-1.582a1.154,1.154,0,0,0-1.1.908,1.478,1.478,0,0,0-.039.324Z" transform="translate(-40.641 -3.551)" fill="#fff"/>
    <path id="Path_47" data-name="Path 47" d="M125.4,10.1h1.245v7.2H125.4Z" transform="translate(-44.094 -3.551)" fill="#fff"/>
    <path id="Path_48" data-name="Path 48" d="M130.8,16.355a1.336,1.336,0,0,0,1.517,1.3,3.968,3.968,0,0,0,1.368-.22l.182.849a4.428,4.428,0,0,1-1.718.311,2.334,2.334,0,0,1-2.542-2.49,2.44,2.44,0,0,1,2.412-2.652,2.145,2.145,0,0,1,2.127,2.4,3.146,3.146,0,0,1-.039.525Zm2.166-.869a1.057,1.057,0,0,0-1.024-1.206,1.219,1.219,0,0,0-1.141,1.206Z" transform="translate(-45.572 -4.729)" fill="#fff"/>
    <path id="Path_49" data-name="Path 49" d="M144.737,18.583a2.386,2.386,0,0,1-2.47-2.542,2.431,2.431,0,0,1,2.548-2.593,2.367,2.367,0,0,1,2.451,2.529,2.438,2.438,0,0,1-2.522,2.593Zm.039-.9c.707,0,1.206-.687,1.206-1.692,0-.772-.344-1.66-1.193-1.66s-1.238.862-1.238,1.679c0,.953.473,1.673,1.212,1.673Z" transform="translate(-50.023 -4.728)" fill="#fff"/>
    <path id="Path_50" data-name="Path 50" d="M152.219,15.005c0-.564,0-1.044-.039-1.465h1.083l.058.739h0a1.809,1.809,0,0,1,1.582-.849c.862,0,1.751.558,1.751,2.114v2.924h-1.219V15.679c0-.707-.266-1.245-.94-1.245a1.044,1.044,0,0,0-.973.726,1.154,1.154,0,0,0-.058.4v2.911h-1.245Z" transform="translate(-53.511 -4.722)" fill="#fff"/>
    <path id="Path_51" data-name="Path 51" d="M166.945,11.64v1.3h1.187v.882h-1.187v2.166c0,.609.162.908.648.908a1.621,1.621,0,0,0,.486-.052v.94a2.73,2.73,0,0,1-.9.13,1.426,1.426,0,0,1-1.07-.4,1.945,1.945,0,0,1-.4-1.388v-2.3H165V12.9h.7v-.921Z" transform="translate(-58.019 -4.093)" fill="#fff"/>
    <path id="Path_52" data-name="Path 52" d="M171.93,10.1h1.245v2.937h0a1.634,1.634,0,0,1,.648-.558,1.757,1.757,0,0,1,.862-.22c.836,0,1.718.558,1.718,2.133v2.9h-1.251V14.522c0-.707-.266-1.258-.953-1.258a1.037,1.037,0,0,0-.973.7,1.122,1.122,0,0,0-.052.376V17.3H171.93Z" transform="translate(-60.456 -3.551)" fill="#fff"/>
    <path id="Path_53" data-name="Path 53" d="M182.25,16.355a1.336,1.336,0,0,0,1.517,1.3,3.968,3.968,0,0,0,1.368-.22l.182.849a4.428,4.428,0,0,1-1.718.311,2.334,2.334,0,0,1-2.542-2.49,2.44,2.44,0,0,1,2.412-2.652,2.145,2.145,0,0,1,2.127,2.4,3.144,3.144,0,0,1-.039.525Zm2.166-.869a1.057,1.057,0,0,0-1.024-1.206,1.219,1.219,0,0,0-1.141,1.206Z" transform="translate(-63.663 -4.729)" fill="#fff"/>
    <path id="Path_54" data-name="Path 54" d="M38.708,27.186a6.069,6.069,0,0,1,2.872-5.1,6.218,6.218,0,0,0-4.9-2.652c-2.062-.214-4.059,1.232-5.109,1.232s-2.691-1.212-4.428-1.18a6.529,6.529,0,0,0-5.492,3.346c-2.373,4.111-.6,10.147,1.673,13.473,1.141,1.627,2.47,3.443,4.208,3.378s2.38-1.089,4.409-1.089,2.632,1.083,4.409,1.044,2.976-1.634,4.072-3.274a13.4,13.4,0,0,0,1.867-3.793,5.868,5.868,0,0,1-3.585-5.4" transform="translate(-7.216 -6.827)" fill="#fff"/>
    <path id="Path_55" data-name="Path 55" d="M41.231,13.766A5.965,5.965,0,0,0,42.6,9.48a6.082,6.082,0,0,0-3.936,2.036,5.686,5.686,0,0,0-1.4,4.137,5.031,5.031,0,0,0,3.975-1.88" transform="translate(-13.098 -3.333)" fill="#fff"/>
    <path id="Path_56" data-name="Path 56" d="M80.145,42.741H77.772l-1.3-4.085H71.937l-1.2,4.085H68.41l4.474-13.9h2.762Zm-4.059-5.8-1.174-3.631q-.188-.558-.7-2.593h-.039q-.207.888-.648,2.593l-1.154,3.631Z" transform="translate(-24.055 -10.141)" fill="#fff"/>
    <path id="Path_57" data-name="Path 57" d="M99.024,39.6a5.7,5.7,0,0,1-1.381,4.039,4.039,4.039,0,0,1-3.073,1.3,3.073,3.073,0,0,1-2.846-1.394h-.039v5.278h-2.23V38.009q0-1.608-.084-3.3h1.945l.123,1.589h.045a3.962,3.962,0,0,1,6.341-.389A5.531,5.531,0,0,1,99.011,39.6m-2.269.084a4.137,4.137,0,0,0-.648-2.412,2.282,2.282,0,0,0-1.945-.992,2.315,2.315,0,0,0-1.5.545,2.542,2.542,0,0,0-.862,1.439,2.885,2.885,0,0,0-.1.648v1.673a2.678,2.678,0,0,0,.648,1.841,2.224,2.224,0,0,0,1.744.752,2.276,2.276,0,0,0,1.945-.966,4.26,4.26,0,0,0,.7-2.561" transform="translate(-31.425 -12.133)" fill="#fff"/>
    <path id="Path_58" data-name="Path 58" d="M116.768,39.6a5.693,5.693,0,0,1-1.381,4.039,4.039,4.039,0,0,1-3.073,1.3,3.073,3.073,0,0,1-2.846-1.42h-.039v5.278H107.2V38.009q0-1.608-.084-3.3h1.945l.123,1.589h.045a3.962,3.962,0,0,1,6.341-.389,5.531,5.531,0,0,1,1.193,3.689m-2.269.084a4.124,4.124,0,0,0-.648-2.412,2.282,2.282,0,0,0-1.945-.992,2.315,2.315,0,0,0-1.5.545,2.535,2.535,0,0,0-.875,1.433,2.814,2.814,0,0,0-.1.648v1.673a2.665,2.665,0,0,0,.648,1.841,2.217,2.217,0,0,0,1.744.752,2.276,2.276,0,0,0,1.945-.966,4.279,4.279,0,0,0,.7-2.561" transform="translate(-37.667 -12.133)" fill="#fff"/>
    <path id="Path_59" data-name="Path 59" d="M137.236,38.732a3.7,3.7,0,0,1-1.245,2.885,5.466,5.466,0,0,1-3.786,1.219,6.639,6.639,0,0,1-3.6-.862l.519-1.854a6.108,6.108,0,0,0,3.242.888,3.047,3.047,0,0,0,1.945-.564,1.861,1.861,0,0,0,.7-1.517,1.945,1.945,0,0,0-.577-1.426,5.375,5.375,0,0,0-1.945-1.076q-3.624-1.375-3.624-3.994a3.521,3.521,0,0,1,1.3-2.807,5.044,5.044,0,0,1,3.4-1.1,6.75,6.75,0,0,1,3.151.648l-.558,1.815a5.492,5.492,0,0,0-2.658-.648,2.684,2.684,0,0,0-1.835.577,1.653,1.653,0,0,0-.558,1.258,1.692,1.692,0,0,0,.648,1.362,7.19,7.19,0,0,0,2.023,1.076,6.866,6.866,0,0,1,2.639,1.692,3.546,3.546,0,0,1,.843,2.412" transform="translate(-45.22 -10.028)" fill="#fff"/>
    <path id="Path_60" data-name="Path 60" d="M149.954,35.15H147.5v4.869q0,1.854,1.3,1.854a4.02,4.02,0,0,0,.986-.1l.058,1.692a5.012,5.012,0,0,1-1.731.246,2.671,2.671,0,0,1-2.062-.8,3.955,3.955,0,0,1-.746-2.7V35.15H143.84V33.477h1.465V31.648L147.49,31v2.5h2.451Z" transform="translate(-50.579 -10.901)" fill="#fff"/>
    <path id="Path_61" data-name="Path 61" d="M165.045,39.642a5.5,5.5,0,0,1-1.3,3.793,4.714,4.714,0,0,1-3.67,1.524,4.48,4.48,0,0,1-3.514-1.465,5.323,5.323,0,0,1-1.3-3.689,5.44,5.44,0,0,1,1.349-3.812,4.668,4.668,0,0,1,3.637-1.485,4.584,4.584,0,0,1,3.547,1.465,5.278,5.278,0,0,1,1.3,3.67m-2.308.071a4.539,4.539,0,0,0-.6-2.38,2.2,2.2,0,0,0-2.055-1.212,2.23,2.23,0,0,0-2.042,1.2,4.6,4.6,0,0,0-.6,2.418,4.539,4.539,0,0,0,.6,2.38,2.275,2.275,0,0,0,4.02-.019,4.538,4.538,0,0,0,.648-2.4" transform="translate(-54.595 -12.132)" fill="#fff"/>
    <path id="Path_62" data-name="Path 62" d="M178.591,36.69a3.981,3.981,0,0,0-.7-.058,2.114,2.114,0,0,0-1.815.888,3.345,3.345,0,0,0-.558,1.978v5.258h-2.224V37.889q0-1.731-.084-3.158h1.945l.084,1.945h.058a3.43,3.43,0,0,1,1.115-1.589,2.7,2.7,0,0,1,1.608-.538,3.644,3.644,0,0,1,.558.039Z" transform="translate(-60.906 -12.149)" fill="#fff"/>
    <path id="Path_63" data-name="Path 63" d="M192.039,39.249a5.407,5.407,0,0,1-.078,1.011h-6.678a2.911,2.911,0,0,0,.966,2.269,3.307,3.307,0,0,0,2.185.726,7.4,7.4,0,0,0,2.7-.473l.35,1.55a8.377,8.377,0,0,1-3.365.648,4.863,4.863,0,0,1-3.657-1.375,5.07,5.07,0,0,1-1.329-3.683,5.745,5.745,0,0,1,1.206-3.8,4.266,4.266,0,0,1,3.5-1.608,3.741,3.741,0,0,1,3.313,1.608,5.427,5.427,0,0,1,.882,3.158m-2.12-.577a3.015,3.015,0,0,0-.434-1.712,1.945,1.945,0,0,0-1.777-.927,2.12,2.12,0,0,0-1.77.908,3.294,3.294,0,0,0-.648,1.731Z" transform="translate(-64.394 -12.134)" fill="#fff"/>
  </g>
</svg>
