<svg id="brand_LinkedIn_Copy" data-name="brand / LinkedIn Copy" xmlns="http://www.w3.org/2000/svg" xmlns:xlink="http://www.w3.org/1999/xlink" width="24" height="24" viewBox="0 0 24 24">
  <defs>
    <clipPath id="clip-path">
      <rect id="brand_LinkedIn_Background_Mask_" data-name="brand / LinkedIn (Background/Mask)" width="24" height="24" fill="none"/>
    </clipPath>
  </defs>
  <g id="brand_LinkedIn" data-name="brand / LinkedIn">
    <rect id="brand_LinkedIn_Background_Mask_2" data-name="brand / LinkedIn (Background/Mask)" width="24" height="24" fill="none"/>
    <g id="brand_LinkedIn-2" data-name="brand / LinkedIn" clip-path="url(#clip-path)">
      <path id="brand_LinkedIn-3" data-name="brand / LinkedIn" d="M10,18H6V6h4V8a4.618,4.618,0,0,1,3.525-1.763A4.5,4.5,0,0,1,18,10.75V18H14V11.25a2.265,2.265,0,0,0-2.247-1.944A1.815,1.815,0,0,0,10,11.25V18ZM4,18H0V6H4V18ZM2,4A2,2,0,1,1,4,2,2,2,0,0,1,2,4Z" transform="translate(3 3)" fill="#7830eb"/>
    </g>
  </g>
</svg>
