<svg xmlns="http://www.w3.org/2000/svg" xmlns:xlink="http://www.w3.org/1999/xlink" width="143.27" height="42.003" viewBox="0 0 143.27 42.003">
  <defs>
    <linearGradient id="linear-gradient" x1="0.807" y1="0.499" x2="-1.573" y2="0.499" gradientUnits="objectBoundingBox">
      <stop offset="0" stop-color="#faea07"/>
      <stop offset="0.18" stop-color="#fbd405"/>
      <stop offset="0.54" stop-color="#fdac02"/>
      <stop offset="0.82" stop-color="#ff9401"/>
      <stop offset="1" stop-color="#ff8b00"/>
    </linearGradient>
    <linearGradient id="linear-gradient-2" x1="0.862" y1="0.179" x2="-0.503" y2="1.951" gradientUnits="objectBoundingBox">
      <stop offset="0" stop-color="#fb2027"/>
      <stop offset="1" stop-color="#c70a5b"/>
    </linearGradient>
    <linearGradient id="linear-gradient-3" x1="-0.507" y1="-0.957" x2="0.606" y2="0.489" gradientUnits="objectBoundingBox">
      <stop offset="0" stop-color="#358d50"/>
      <stop offset="0.31" stop-color="#4ba04d"/>
      <stop offset="0.74" stop-color="#63b549"/>
      <stop offset="1" stop-color="#6cbd48"/>
    </linearGradient>
  </defs>
  <g id="Group_35" data-name="Group 35" transform="translate(-424.036 -446.97)">
    <g id="Layer_2" data-name="Layer 2" transform="translate(425.208 447.445)">
      <g id="Google_Play" data-name="Google Play" transform="translate(1 0)">
        <rect id="Rectangle_4" data-name="Rectangle 4" width="140.048" height="40.484" rx="7.38" transform="translate(-2.172 -0.475)"/>
        <path id="Path_64" data-name="Path 64" d="M135.788,41.528H5.31A5.317,5.317,0,0,1,0,36.218V5.31A5.317,5.317,0,0,1,5.31,0H135.788a5.317,5.317,0,0,1,5.31,5.31V36.218A5.317,5.317,0,0,1,135.788,41.528ZM5.31,1.05A4.266,4.266,0,0,0,1.05,5.31V36.218a4.266,4.266,0,0,0,4.26,4.26H135.788a4.266,4.266,0,0,0,4.26-4.26V5.31a4.266,4.266,0,0,0-4.26-4.266Z" transform="translate(0 0)" fill="none"/>
        <path id="Path_65" data-name="Path 65" d="M94.517,32.349a4.435,4.435,0,1,0,4.454,4.435,4.37,4.37,0,0,0-4.454-4.435Zm0,7.132a2.7,2.7,0,1,1,2.5-2.691,2.593,2.593,0,0,1-2.5,2.691Zm-9.726-7.132a4.435,4.435,0,1,0,4.454,4.435A4.37,4.37,0,0,0,84.8,32.349Zm0,7.132a2.7,2.7,0,1,1,2.5-2.691,2.593,2.593,0,0,1-2.49,2.691ZM73.264,33.73V35.59h4.5a3.929,3.929,0,0,1-1.024,2.367,4.61,4.61,0,0,1-3.475,1.4,5.005,5.005,0,1,1,0-10.011,4.8,4.8,0,0,1,3.391,1.342l1.3-1.3a6.562,6.562,0,0,0-4.688-1.932,6.889,6.889,0,0,0,0,13.778,6.3,6.3,0,0,0,4.8-1.945,6.218,6.218,0,0,0,1.627-4.4,6.127,6.127,0,0,0-.1-1.174Zm47.247,1.459a4.124,4.124,0,0,0-3.806-2.84,4.214,4.214,0,0,0-4.182,4.435,4.338,4.338,0,0,0,4.4,4.435,4.409,4.409,0,0,0,3.7-1.945l-1.511-1a2.535,2.535,0,0,1-2.191,1.212,2.256,2.256,0,0,1-2.159-1.336l5.933-2.451Zm-6.049,1.478a2.431,2.431,0,0,1,2.321-2.593,1.718,1.718,0,0,1,1.647.94Zm-4.824,4.3h1.945V27.933h-1.945Zm-3.19-7.612h-.065a3.073,3.073,0,0,0-2.334-.992,4.441,4.441,0,0,0,0,8.87,3.021,3.021,0,0,0,2.334-1h.065v.648c0,1.7-.908,2.593-2.367,2.593a2.451,2.451,0,0,1-2.237-1.582l-1.7.707a4.227,4.227,0,0,0,3.929,2.593c2.282,0,4.214-1.342,4.214-4.623v-7.93h-1.848ZM104.2,39.481a2.7,2.7,0,0,1,0-5.375,2.516,2.516,0,0,1,2.367,2.7,2.477,2.477,0,0,1-2.367,2.671Zm25.423-11.56h-4.662V40.972h1.945V36.031h2.717a4.052,4.052,0,1,0,0-8.1Zm.052,6.283H126.91V29.755h2.762a2.237,2.237,0,1,1,0,4.467ZM141.7,32.349a3.65,3.65,0,0,0-3.469,2l1.725.72a1.841,1.841,0,0,1,1.777-.953,1.878,1.878,0,0,1,2.049,1.679v.136a4.305,4.305,0,0,0-2.029-.506c-1.861,0-3.754,1.024-3.754,2.937a3.01,3.01,0,0,0,3.242,2.866,2.743,2.743,0,0,0,2.483-1.3h.065v1h1.88V35.947C145.661,33.645,143.936,32.349,141.7,32.349Zm-.233,7.132c-.648,0-1.524-.318-1.524-1.109,0-1,1.109-1.394,2.062-1.394a3.469,3.469,0,0,1,1.777.434A2.36,2.36,0,0,1,141.466,39.481Zm11.022-6.86-2.23,5.654h-.065l-2.315-5.654h-2.094l3.469,7.9-1.978,4.4H149.3L154.654,32.6Zm-17.506,8.338h1.945V27.933h-1.945Z" transform="translate(-23.339 -9.656)" fill="#fff"/>
        <path id="Path_66" data-name="Path 66" d="M16.738,12.141a2.088,2.088,0,0,0-.48,1.465V36.663a2.088,2.088,0,0,0,.48,1.452l.078.078,12.89-12.909v-.292L16.8,12.07Z" transform="translate(-5.715 -4.244)" fill="#72c9df"/>
        <path id="Path_67" data-name="Path 67" d="M41.305,34.262,37,29.957v-.292l4.305-4.305.1.058,5.1,2.9c1.459.83,1.459,2.179,0,3.008L41.4,34.2Z" transform="translate(-13.01 -8.917)" fill="url(#linear-gradient)"/>
        <path id="Path_68" data-name="Path 68" d="M34.37,36.612l-4.4-4.4L17,45.177a1.7,1.7,0,0,0,2.166.065l15.2-8.63" transform="translate(-5.978 -11.326)" fill="url(#linear-gradient-2)"/>
        <path id="Path_69" data-name="Path 69" d="M34.359,20.543,19.136,11.9a1.692,1.692,0,0,0-2.166.065L29.937,24.932Z" transform="translate(-5.967 -4.061)" fill="url(#linear-gradient-3)"/>
        <path id="Path_70" data-name="Path 70" d="M71.5,12.568A2.23,2.23,0,0,0,70.026,12a2.357,2.357,0,0,0,0,4.714,1.777,1.777,0,0,0,1.945-1.653H70.253v-.752h2.691c0,2.153-1.148,3.171-2.9,3.171a3.151,3.151,0,0,1,0-6.3,3.034,3.034,0,0,1,2.075.81Z" transform="translate(-23.57 -3.931)" fill="#fff"/>
        <path id="Path_71" data-name="Path 71" d="M81.5,11.33V12.1H78.7v1.945h2.451v.778H78.7v1.867h2.892v.772H77.87V11.33Z" transform="translate(-27.381 -3.984)" fill="#fff"/>
        <path id="Path_72" data-name="Path 72" d="M89.278,11.33v.785H87.417v5.349h-.836V12.115H84.72V11.33Z" transform="translate(-29.79 -3.984)" fill="#fff"/>
        <path id="Path_73" data-name="Path 73" d="M97.43,11.33v6.134H96.6V11.33Z" transform="translate(-33.968 -3.984)" fill="#fff"/>
        <path id="Path_74" data-name="Path 74" d="M104.118,11.33v.785h-1.861v5.349h-.836V12.115H99.56V11.33Z" transform="translate(-35.008 -3.984)" fill="#fff"/>
        <path id="Path_75" data-name="Path 75" d="M113.919,11.22a3.151,3.151,0,1,1-3.1,3.151,3.112,3.112,0,0,1,3.1-3.151Zm0,5.492a2.289,2.289,0,0,0,2.282-2.341,2.276,2.276,0,1,0-4.539,0,2.282,2.282,0,0,0,2.256,2.341Z" transform="translate(-38.968 -3.945)" fill="#fff"/>
        <path id="Path_76" data-name="Path 76" d="M126.034,17.464l-2.794-4.623v4.623h-.83V11.33h.817L126,15.914V11.33h.83v6.134Z" transform="translate(-43.043 -3.984)" fill="#fff"/>
      </g>
    </g>
  </g>
</svg>
