<svg xmlns="http://www.w3.org/2000/svg" width="659.534" height="433.242" viewBox="0 0 659.534 433.242">
  <g id="_5edeba418876273e5d1b517e_Illustration_202" data-name="5edeba418876273e5d1b517e_Illustration%202" transform="translate(43.513 -0.715) rotate(7)">
    <path id="Path-3" d="M606.821,348.908l13.422-3.982-2.728,15.412Zm2.956-10.6,1.9-.611q1.045,3.258,2.107,6.686l-1.911.591Q610.818,341.551,609.777,338.3Zm-4.43-13.255,1.889-.66q1.123,3.221,2.264,6.638l-1.9.634Q606.467,328.256,605.347,325.049Zm-4.82-13.1,1.864-.725q1.234,3.171,2.481,6.566l-1.878.689Q601.754,315.1,600.528,311.945Zm-5.369-12.876,1.824-.82q1.392,3.1,2.788,6.452l-1.847.769Q596.538,302.136,595.158,299.068Zm-125.623.64a13.114,13.114,0,0,0,6.267-1.75l1.026,1.716a15.1,15.1,0,0,1-7.211,2.032Zm-13.771-1.732.979-1.744a29.062,29.062,0,0,0,6.236,2.623l-.547,1.923A31.026,31.026,0,0,1,455.765,297.976Zm24.443-4.784A45.528,45.528,0,0,0,483.13,287l1.867.716a47.412,47.412,0,0,1-3.051,6.467Zm-35.077-4.9,1.677-1.09a25.818,25.818,0,0,0,4.414,5.09l-1.336,1.489A27.768,27.768,0,0,1,445.131,288.287ZM589,286.583l1.756-.958q1.625,2.978,3.237,6.256l-1.8.883Q590.6,289.518,589,286.583Zm-147.026-8.045a21.783,21.783,0,0,1,.474-4.455l1.958.406a19.838,19.838,0,0,0-.432,4.046,13.429,13.429,0,0,0,.259,2.56l-1.962.388A15.434,15.434,0,0,1,441.975,278.537Zm43.147,1.878a52.365,52.365,0,0,0,1.071-6.784l1.991.184a54.151,54.151,0,0,1-1.112,7.043Zm96.569-5.641,1.631-1.157q1.976,2.786,3.893,5.9l-1.7,1.049Q583.626,277.5,581.691,274.775Zm-8.853-10.624,1.425-1.4c1.637,1.662,3.215,3.406,4.75,5.252l-1.538,1.279C575.975,267.475,574.435,265.774,572.837,264.151Zm-128.063,3.09A51.527,51.527,0,0,1,448.236,261l1.683,1.08a49.533,49.533,0,0,0-3.328,6Zm41.092-7.34,1.983-.258a68.183,68.183,0,0,1,.561,7.082l-2,.051A66.224,66.224,0,0,0,485.867,259.9Zm76.57-4.875,1.214-1.589q2.8,2.14,5.467,4.478l-1.318,1.5Q565.177,257.121,562.437,255.026Zm-110.087.2q2.059-2.642,4.528-5.421l1.495,1.328q-2.426,2.731-4.445,5.322Zm30.515-8.834,1.912-.589q1.073,3.48,1.825,6.839l-1.951.437Q483.914,249.8,482.865,246.39Zm68,.95,1-1.732q3.114,1.8,6.006,3.715l-1.105,1.667Q553.923,249.1,550.869,247.341Zm-89.156-2.71q2.368-2.418,5.021-4.931l1.375,1.452q-2.626,2.488-4.967,4.879Zm76.771-3.6.825-1.822q3.313,1.5,6.353,3.043l-.906,1.783Q541.751,242.507,538.484,241.028Zm-60.573-7.583,1.822-.826q1.5,3.3,2.73,6.51l-1.867.717Q479.385,236.692,477.912,233.445Zm51.588,3.789q-1.982-.784-3.905-1.493l.691-1.876q1.945.717,3.95,1.51c.889.352,1.757.7,2.61,1.051l-.759,1.85C531.241,237.929,530.381,237.583,529.5,237.234Zm-57.6-2.322a27.077,27.077,0,0,1,5.958-4.162l.917,1.777a25.127,25.127,0,0,0-5.521,3.856Zm40.509-3.311.491-1.939q3.291.834,6.786,1.94l-.6,1.907Q515.647,232.419,512.413,231.6Zm-27.757-3.366a39.671,39.671,0,0,1,7.106-1.041l.118,2a37.531,37.531,0,0,0-6.748.987Zm14.083,1.03.148-1.994q3.376.251,7.042.89l-.343,1.97Q502.015,229.508,498.74,229.264Zm-27.207-8.182,1.733-1q1.8,3.125,3.38,6.179l-1.777.92Q473.31,224.169,471.533,221.082ZM464.114,209.3l1.653-1.126q2.024,2.97,3.86,5.884l-1.691,1.066Q466.118,212.241,464.114,209.3Zm-8.757-10.5,1.273-1.543a31.839,31.839,0,0,1,5.066,5.155l-1.589,1.214A29.821,29.821,0,0,0,455.357,198.8Zm-11.624-7.326.9-1.786q3.361,1.7,6.192,3.449l-1.054,1.7Q447.02,193.134,443.732,191.477Zm-12.758-5.522.707-1.871q3.441,1.3,6.538,2.628l-.79,1.837Q434.376,187.237,430.974,185.954Zm-13.209-4.482.588-1.912q3.471,1.066,6.689,2.155l-.64,1.895Q421.21,182.531,417.765,181.472Zm-13.413-3.805.508-1.934q3.487.917,6.773,1.847l-.544,1.924Q407.821,178.579,404.352,177.667Zm-13.572-3.345.452-1.949q3.5.811,6.823,1.629l-.478,1.942Q394.261,175.129,390.78,174.322Zm-13.649-3,.409-1.958q3.5.73,6.853,1.467l-.429,1.954Q380.619,172.05,377.131,171.321Zm-13.713-2.742.376-1.964q3.506.671,6.881,1.346l-.392,1.962Q366.916,169.249,363.417,168.579Zm-13.763-2.542.351-1.969q3.506.625,6.889,1.249l-.363,1.967Q353.154,166.661,349.655,166.037Zm-13.789-2.381.33-1.973q3.515.59,6.911,1.175l-.34,1.971Q339.374,164.244,335.866,163.656ZM322.072,161.4l.314-1.975q3.514.559,6.909,1.114l-.322,1.974Q325.58,161.962,322.072,161.4Zm-13.828-2.157.3-1.977q3.522.539,6.919,1.068l-.309,1.976Q311.76,159.782,308.244,159.245ZM294.4,157.163l.292-1.978q3.534.522,6.926,1.032l-.3,1.978Q297.923,157.684,294.4,157.163Zm-13.865-2.026.286-1.98c2.368.342,4.672.677,6.926,1.006l-.289,1.979C285.2,155.813,282.9,155.478,280.53,155.137Zm-13.821-1.98.281-1.98c2.4.341,4.7.67,6.939.99l-.283,1.979C271.41,153.826,269.108,153.5,266.709,153.157Zm-13.879-1.963.279-1.98,6.935.978-.28,1.98Zm-10.382-1.462-3.469-.489.279-1.98,3.469.488,3.47.489-.278,1.981Zm-17.331-2.447.281-1.98c2.192.311,4.474.634,6.925.98l-.28,1.981ZM211.233,145.3l.285-1.98c2.237.322,4.536.653,6.92.993l-.283,1.98C215.771,145.954,213.471,145.624,211.233,145.3Zm-13.844-2.017.292-1.979q3.384.5,6.926,1.015l-.288,1.979Q200.768,143.784,197.389,143.285Zm-13.863-2.077.3-1.977q3.4.517,6.929,1.047l-.3,1.978Q186.922,141.725,183.526,141.208Zm-13.837-2.154L170,137.08q3.39.539,6.908,1.086l-.308,1.976Q173.081,139.594,169.69,139.055ZM155.874,136.8l.331-1.973q3.387.568,6.9,1.142l-.322,1.974Q159.265,137.369,155.874,136.8Zm-13.8-2.389.352-1.968q3.379.6,6.889,1.211l-.341,1.971Q145.454,135.016,142.07,134.411Zm-13.8-2.567.381-1.964q3.368.653,6.88,1.305l-.365,1.966Q131.648,132.5,128.273,131.844Zm-13.73-2.789.418-1.957q3.34.713,6.839,1.423l-.4,1.96Q117.893,129.77,114.543,129.055Zm-13.682-3.1.468-1.945q3.309.8,6.8,1.585l-.441,1.951Q104.184,126.758,100.861,125.96Zm-13.585-3.515.538-1.926q3.26.911,6.745,1.81l-.5,1.937Q90.555,123.361,87.277,122.445Zm-13.442-4.133.644-1.893q3.166,1.079,6.627,2.138l-.586,1.912Q77.03,119.4,73.834,118.312Zm-8.367-3.089q-2.43-.977-4.768-1.989l.794-1.835q2.315,1,4.721,1.968c.57.229,1.14.455,1.722.68l-.722,1.865C66.623,115.684,66.045,115.456,65.467,115.223Zm-17.494-8.109.944-1.763q3.006,1.609,6.2,3.145l-.866,1.8Q51.018,108.745,47.973,107.114Zm-12.111-7.3,1.125-1.653q2.812,1.913,5.851,3.74l-1.03,1.715Q38.721,101.761,35.861,99.815ZM24.691,91.1l1.338-1.487q2.525,2.272,5.315,4.443l-1.229,1.579Q27.27,93.423,24.691,91.1ZM14.958,80.782l1.57-1.239q2.109,2.67,4.524,5.225L19.6,86.142Q17.122,83.524,14.958,80.782ZM7.336,68.913l1.783-.9a66.829,66.829,0,0,0,3.435,5.98l-1.681,1.084A68.778,68.778,0,0,1,7.336,68.913ZM2.277,55.582l1.935-.507a65.07,65.07,0,0,0,2.1,6.569l-1.87.708A67.017,67.017,0,0,1,2.277,55.582ZM.09,41.542l2-.114q.2,3.5.721,6.866L.832,48.6Q.3,45.134.09,41.542ZM0,34.455Q.107,30.98.5,27.4l1.987.219Q2.1,31.121,2,34.516ZM1.526,20.393q.62-3.407,1.485-6.906l1.941.48Q4.1,17.407,3.494,20.75ZM4.9,6.684Q5.909,3.382,7.128,0L9.01.679q-1.2,3.336-2.2,6.592Z" transform="translate(0.485 0.661)" fill="#122d55"/>
  </g>
</svg>
