<svg xmlns="http://www.w3.org/2000/svg" width="50" height="50" viewBox="0 0 50 50">
  <g id="_5e762cc2cdc6be3ed5010829_card-1" data-name="5e762cc2cdc6be3ed5010829_card-1" transform="translate(18.5 -37)">
    <g id="Group" transform="translate(-19 37)">
      <path id="Path" d="M25,50A25,25,0,1,0,0,25,25,25,0,0,0,25,50Z" transform="translate(0.5)" fill="#7830eb"/>
      <path id="Shape" d="M16,32A16,16,0,0,1,4.686,4.686,16,16,0,1,1,27.314,27.314,15.9,15.9,0,0,1,16,32ZM16,1.5A14.5,14.5,0,0,0,5.747,26.253,14.5,14.5,0,0,0,26.253,5.747,14.405,14.405,0,0,0,16,1.5ZM14.2,21.9h0l-4.1-4.2,1-1,3.1,3.1,7.9-7.9,1,1-8.9,9Z" transform="translate(9.5 9)" fill="#fff"/>
    </g>
  </g>
</svg>
