<svg xmlns="http://www.w3.org/2000/svg" xmlns:xlink="http://www.w3.org/1999/xlink" width="23.886" height="24" viewBox="0 0 23.886 24">
  <defs>
    <clipPath id="clip-path">
      <path id="Path_78" data-name="Path 78" d="M.057,0,1.744-6.163A11.867,11.867,0,0,1,.157-12.109,11.91,11.91,0,0,1,12.05-24a11.817,11.817,0,0,1,8.413,3.488,11.824,11.824,0,0,1,3.48,8.414A11.91,11.91,0,0,1,12.05-.206,11.9,11.9,0,0,1,6.362-1.654Zm6.6-3.807a9.973,9.973,0,0,0,5.392,1.592A9.9,9.9,0,0,0,21.935-12.1a9.882,9.882,0,0,0-9.881-9.892,9.9,9.9,0,0,0-9.889,9.884A9.969,9.969,0,0,0,3.911-6.474l-1,3.648ZM18.041-9.271c-.074-.124-.272-.2-.57-.347s-1.758-.868-2.031-.967-.47-.149-.669.149S14-9.469,13.83-9.271s-.347.223-.644.074a8.111,8.111,0,0,1-2.39-1.475,8.945,8.945,0,0,1-1.653-2.059c-.173-.3-.018-.458.13-.606s.3-.347.446-.521a1.949,1.949,0,0,0,.3-.495.546.546,0,0,0-.025-.521c-.075-.148-.669-1.611-.916-2.206-.242-.579-.487-.5-.669-.51l-.57-.01a1.089,1.089,0,0,0-.792.372,3.334,3.334,0,0,0-1.04,2.479A5.783,5.783,0,0,0,7.22-11.675,13.249,13.249,0,0,0,12.3-7.188a17.2,17.2,0,0,0,1.694.626,4.085,4.085,0,0,0,1.872.118,3.061,3.061,0,0,0,2.006-1.413,2.476,2.476,0,0,0,.173-1.414Z" fill="#41c451"/>
    </clipPath>
  </defs>
  <g id="Group_7" data-name="Group 7" transform="translate(-0.057 24)">
    <g id="Group_6" data-name="Group 6" clip-path="url(#clip-path)">
      <path id="Path_77" data-name="Path 77" d="M-4.943-29H28.943V5H-4.943Z" fill="#41c451"/>
    </g>
  </g>
</svg>
